OpenSim_Sub10_CSStiffKnee_GRF.mot
version=1
nRows=23
nColumns=19
inDegrees=no
endheader
time	lFx	lFy	lFz	lCOPx	lCOPy	lCOPz	rFx	rFy	rFz	rCOPx	rCOPy	rCOPz	lMx	lMy	lMz	rMx	rMy	rMz
20.43000000	-8.31847779	2.49906346	1.78307470	0.01475647	0	-0.00737132	-104.68974988	654.39946841	-29.23751951	1.13464628	0	-0.34931185	0	-0.03212278	0	0	-0.99846252	0
20.44000000	-6.50329839	-1.52884082	1.29109683	-0.01648810	0	0.01494190	-123.47741497	667.94335906	-38.15684984	1.12885370	0	-0.34564005	0	-0.09120662	0	0	-1.22849824	0
20.45000000	-5.48342663	-2.43902294	1.22326095	-0.01719233	0	0.01399742	-135.19276418	678.84604644	-48.52358065	1.12572598	0	-0.34338020	0	-0.06510377	0	0	-1.56313047	0.00000000
20.46000000	-5.17318879	-2.09533498	1.30340741	-0.00952058	0	0.00735104	-139.11590465	691.79216521	-58.78586363	1.12297243	0	-0.34189060	0	-0.02846526	0	0	-1.97459771	0.00000000
20.47000000	-5.16795203	-1.53833505	1.40479233	-0.00314614	0	0.00223858	-136.00509226	704.62805716	-66.52485761	1.11914550	0	-0.34082783	0	-0.00579331	0	0	-2.39322783	0
20.48000000	-5.25348343	-1.11801505	1.47788439	-0.00002718	0	-0.00013280	-127.51925462	713.87832283	-70.34173556	1.11404748	0	-0.34001191	0	0.00283350	0	0	-2.70208343	0.00000000
20.49000000	-5.38377680	-0.93599726	1.49646407	0.00080778	0	-0.00069749	-115.69834622	717.19559730	-70.70239295	1.10801225	0	-0.33932738	0	0.00381357	0	0	-2.92442976	0
20.50000000	-5.50501171	-0.97695013	1.49165811	0.00065880	0	-0.00052763	-102.40804929	712.85471794	-69.01038502	1.10146502	0	-0.33871808	0	0.00232911	0	0	-3.14529059	-0.00000000
20.51000000	-5.56231500	-1.00790919	1.47272000	0.00031841	0	-0.00024169	-89.33749463	699.76543748	-66.50525120	1.09491620	0	-0.33814288	0	0.00087314	0	0	-3.31880384	-0.00000000
20.52000000	-5.58399334	-0.92526567	1.48598280	0.00008312	0	-0.00005582	-77.62605685	678.29947093	-63.62894579	1.08882456	0	-0.33754045	0	0.00009012	0	0	-3.42007931	0.00000000
20.53000000	-5.58801309	-0.80838447	1.50116894	-0.00001692	0	0.00001871	-67.49671525	650.60384074	-60.37309776	1.08324547	0	-0.33692686	0	-0.00015757	0	0	-3.52966981	0.00000000
20.54000000	-5.59008381	-0.72492280	1.47973963	-0.00003557	0	0.00002981	-58.64369184	620.17834481	-56.68350391	1.07795724	0	-0.33634559	0	-0.00015088	0	0	-3.57594465	0
20.55000000	-5.57072526	-0.63367371	1.47577978	-0.00002423	0	0.00001912	-50.78009734	590.65887283	-52.81815842	1.07266716	0	-0.33581639	0	-0.00008015	0	0	-3.51329059	0.00000000
20.56000000	-5.50466446	-0.58449523	1.47198807	-0.00001017	0	0.00000756	-43.80699135	564.19848908	-49.34545520	1.06733573	0	-0.33529457	0	-0.00002487	0	0	-3.45710940	0
20.57000000	-5.41309161	-0.60936603	1.47254998	-0.00000181	0	0.00000106	-37.88675627	541.33469795	-46.83293641	1.06213313	0	-0.33480155	0	0.00000108	0	0	-3.42782870	0
20.58000000	-5.33438329	-0.67511367	1.48114946	0.00000122	0	-0.00000114	-33.14977908	522.08389369	-45.03773033	1.05723702	0	-0.33433374	0	0.00000743	0	0	-3.34850641	0
20.59000000	-5.24555390	-0.77637463	1.47397126	0.00000146	0	-0.00000120	-29.52894608	506.54896150	-43.21786457	1.05265424	0	-0.33387939	0	0.00000571	0	0	-3.22200283	-0.00000000
20.60000000	-5.17215587	-0.84407598	1.47993874	0.00000086	0	-0.00000067	-26.59863416	495.02042715	-41.19063726	1.04788352	0	-0.33352166	0	0.00000265	0	0	-3.08730982	0
20.61000000	-5.16334301	-0.86071085	1.51734869	0.00000031	0	-0.00000022	-24.06030646	488.16782289	-39.37510280	1.04278778	0	-0.33329774	0	0.00000063	0	0	-2.93597104	0
20.62000000	-5.22808588	-0.86732430	1.56661344	0.00000002	0	-0.00000000	-21.93096290	486.48592456	-38.10010670	1.03746473	0	-0.33317645	0	-0.00000019	0	0	-2.79019541	0.00000000
20.63000000	-5.36079996	-0.86331359	1.58172186	-0.00000006	0	0.00000006	-20.33054660	490.00499424	-37.49525268	1.03189138	0	-0.33316151	0	-0.00000032	0	0	-2.64319932	-0.00000000
20.64000000	-5.51821476	-0.80385080	1.53059416	-0.00000006	0	0.00000005	-19.19220859	498.41115961	-37.49584377	1.02589558	0	-0.33328153	0	-0.00000021	0	0	-2.45996083	0
20.65000000	-5.71444014	-0.74404449	1.39787832	-0.00000003	0	0.00000002	-18.36676850	511.43985279	-37.86901296	1.01952770	0	-0.33348537	0	-0.00000008	0	0	-2.25876563	0
